<svg width="310" height="440" viewBox="0 0 310 440" fill="none" xmlns="http://www.w3.org/2000/svg">
<path d="M145.287 272.845C93.508 272.845 51.5334 228.37 51.5334 173.506C51.5334 155.825 55.8939 139.224 63.536 124.842L24.7087 96.7798C11.9786 119.192 4.65723 145.443 4.65723 173.506C4.65723 202.047 12.4243 230.447 27.4024 254.786C41.6296 277.905 62.198 297.084 86.6616 308.988C96.4328 313.743 106.775 317.32 117.404 319.586C124.422 321.082 131.497 322.666 138.696 322.892C142.137 323 145.89 322.959 149.19 321.866C152.008 320.932 172.715 308.874 177.581 306.024C178.829 305.292 158.232 272.845 145.287 272.845Z" fill="#C7C7C7"/>
<path d="M214.833 360.969C196.366 377.979 170.867 388.559 142.529 388.559C101.302 388.559 64.8285 365.906 48.6798 331.954C43.7176 321.521 21.9146 312.29 21.9146 312.29L10.1939 322.478C0.787137 330.725 -2.87479 342.882 2.47531 354.131C27.2053 406.125 81.7473 440 142.529 440C188.311 440 229.592 420.927 257.803 390.563L214.833 360.969Z" fill="#C7C7C7"/>
<path d="M148.044 154.318C143.997 153.834 135.117 147.664 135.117 147.664C135.117 147.664 120.243 171.451 119.605 176.786C117.921 190.874 127.923 203.655 141.946 205.334C156.026 207.021 170.036 209.785 182.855 216.116C194.401 221.818 204.747 229.875 213.133 239.651C221.583 249.503 228.003 261.058 231.909 273.439C234.92 282.982 236.429 292.98 236.429 302.985C236.429 333.657 222.176 360.996 199.938 378.733L224.932 400.755C251.617 378.137 278.687 354.065 283.085 317.274C292.687 236.95 231.81 164.347 148.044 154.319V154.318Z" fill="#C7C7C7"/>
<path d="M262.948 142.516C265.496 141.738 294.396 125.159 294.396 125.159L278.801 101.312C248.962 53.1712 194.36 24.6533 136.274 29.0452C80.4545 33.2656 45.0844 78.3708 21.623 124.792L62.4045 141.563C62.7578 140.634 63.1208 139.716 63.4897 138.806C76.1616 101.727 111.353 75.0594 152.785 75.0594C167.157 75.0594 181.464 78.3435 194.364 84.678C206.88 90.8235 217.973 99.7631 226.653 110.66C232.089 117.484 236.208 125.256 240.42 132.86C243.903 139.146 250.047 143.341 257.394 143.341C259.324 143.341 261.187 143.052 262.942 142.518L262.946 142.516H262.948Z" fill="#C7C7C7"/>
<path fill-rule="evenodd" clip-rule="evenodd" d="M27.6127 308.841C14.8189 314.965 9.40229 330.319 15.5158 343.135C40.3136 395.127 95.0055 429 155.954 429C240.658 429 310 364.075 310 283.085C310 202.096 240.658 137.171 155.954 137.171C141.775 137.171 130.28 148.686 130.28 162.89C130.28 177.095 141.775 188.61 155.954 188.61C213.046 188.61 258.652 231.311 258.652 283.085C258.652 334.86 213.046 377.561 155.954 377.561C114.613 377.561 78.0402 354.909 61.8471 320.959C55.7346 308.143 40.4065 302.717 27.6127 308.841ZM294.787 125.416C307.734 119.624 313.543 104.414 307.761 91.4446C283.172 36.286 228.412 0 167.046 0C81.9683 0 13 69.0901 13 154.317C13 239.544 81.9683 308.634 167.046 308.634C181.225 308.634 192.72 297.119 192.72 282.915C192.72 268.71 181.225 257.195 167.046 257.195C110.328 257.195 64.3482 211.136 64.3482 154.318C64.3482 97.5004 110.327 51.4387 167.046 51.4387C207.969 51.4387 244.474 75.6287 260.875 112.42C266.657 125.39 281.84 131.209 294.787 125.416Z" fill="#EFEFEF"/>
</svg>
