<svg width="297" height="429" viewBox="0 0 297 429" fill="none" xmlns="http://www.w3.org/2000/svg">
<path fill-rule="evenodd" clip-rule="evenodd" d="M14.6127 308.841C1.81889 314.965 -3.59771 330.319 2.51576 343.135C27.3136 395.127 82.0055 429 142.954 429C227.658 429 297 364.075 297 283.085C297 202.096 227.658 137.171 142.954 137.171C128.775 137.171 117.28 148.686 117.28 162.89C117.28 177.095 128.775 188.61 142.954 188.61C200.046 188.61 245.652 231.311 245.652 283.085C245.652 334.86 200.046 377.561 142.954 377.561C101.613 377.561 65.0402 354.909 48.8471 320.959C42.7346 308.143 27.4065 302.717 14.6127 308.841ZM281.787 125.416C294.734 119.624 300.543 104.414 294.761 91.4446C270.172 36.286 215.412 0 154.046 0C68.9683 0 0 69.0901 0 154.317C0 239.544 68.9683 308.634 154.046 308.634C168.225 308.634 179.72 297.119 179.72 282.915C179.72 268.71 168.225 257.195 154.046 257.195C97.3277 257.195 51.3482 211.136 51.3482 154.318C51.3482 97.5004 97.3267 51.4387 154.046 51.4387C194.969 51.4387 231.474 75.6287 247.875 112.42C253.657 125.39 268.84 131.209 281.787 125.416Z" fill="#EFEFEF"/>
</svg>
