<svg width="295" height="412" viewBox="0 0 295 412" fill="none" xmlns="http://www.w3.org/2000/svg">
<path d="M145.287 244.845C93.508 244.845 51.5334 200.37 51.5334 145.506C51.5334 127.825 55.8939 111.224 63.536 96.8416L24.7087 68.7798C11.9786 91.1917 4.65723 117.443 4.65723 145.506C4.65723 174.047 12.4243 202.447 27.4024 226.786C41.6296 249.905 62.198 269.084 86.6616 280.988C96.4328 285.743 106.775 289.32 117.404 291.586C124.422 293.082 131.497 294.666 138.696 294.892C142.137 295 145.89 294.959 149.19 293.866C152.008 292.932 172.715 280.874 177.581 278.024C178.829 277.292 158.232 244.845 145.287 244.845Z" fill="#C7C7C7"/>
<path d="M214.833 332.969C196.366 349.979 170.867 360.559 142.529 360.559C101.302 360.559 64.8285 337.906 48.6798 303.954C43.7176 293.521 21.9146 284.29 21.9146 284.29L10.1939 294.478C0.787137 302.725 -2.87479 314.882 2.47531 326.131C27.2053 378.125 81.7473 412 142.529 412C188.311 412 229.592 392.927 257.803 362.563L214.833 332.969Z" fill="#C7C7C7"/>
<path d="M148.044 126.318C143.997 125.834 135.117 119.664 135.117 119.664C135.117 119.664 120.243 143.451 119.605 148.786C117.921 162.874 127.923 175.655 141.946 177.334C156.026 179.021 170.036 181.785 182.855 188.116C194.401 193.818 204.747 201.875 213.133 211.651C221.583 221.503 228.003 233.058 231.909 245.439C234.92 254.982 236.429 264.98 236.429 274.985C236.429 305.657 222.176 332.996 199.938 350.733L224.932 372.755C251.617 350.137 278.687 326.065 283.085 289.274C292.687 208.95 231.81 136.347 148.044 126.319V126.318Z" fill="#C7C7C7"/>
<path d="M262.948 114.516C265.496 113.738 294.396 97.1586 294.396 97.1586L278.801 73.3121C248.962 25.1712 194.36 -3.34669 136.274 1.04517C80.4545 5.26556 45.0844 50.3708 21.623 96.7922L62.4045 113.563C62.7578 112.634 63.1208 111.716 63.4897 110.806C76.1616 73.7272 111.353 47.0594 152.785 47.0594C167.157 47.0594 181.464 50.3435 194.364 56.678C206.88 62.8235 217.973 71.7631 226.653 82.66C232.089 89.4845 236.208 97.256 240.42 104.86C243.903 111.146 250.047 115.341 257.394 115.341C259.324 115.341 261.187 115.052 262.942 114.518L262.946 114.516H262.948Z" fill="#C7C7C7"/>
</svg>
