<svg width="24" height="24" viewBox="0 0 24 24" fill="none" xmlns="http://www.w3.org/2000/svg">
<path d="M12 4C7.59 4 4 7.59 4 12C4 16.41 7.59 20 12 20C16.41 20 20 16.41 20 12C20 7.59 16.41 4 12 4ZM2.74414 4.36133C1.03098 6.43544 0 9.10432 0 12C0 14.8945 1.02926 17.5598 2.74023 19.6328L4.2832 18.3613C2.85617 16.6323 2 14.4215 2 12C2 9.57768 2.85632 7.36661 4.28516 5.63672L2.74414 4.36133ZM21.2598 4.36719L19.7168 5.63867C21.1438 7.36766 22 9.57852 22 12C22 14.4234 21.1438 16.6333 19.7148 18.3633L21.2559 19.6387C22.9689 17.5647 24 14.8966 24 12C24 9.10548 22.9707 6.4402 21.2598 4.36719ZM11 7H13V12H11V7ZM11 14H13V16H11V14Z" fill="black"/>
</svg>
