<svg width="41" height="41" viewBox="0 0 41 41" fill="none" xmlns="http://www.w3.org/2000/svg">
<g filter="url(#filter0_d_2796_5332)">
<path d="M16.5558 1H7.49107C6.79911 1 6.21094 1.24219 5.72656 1.72656C5.24219 2.21094 5 2.79911 5 3.49107V12.5558C5 13.2478 5.24219 13.8359 5.72656 14.3203C6.21094 14.8047 6.79911 15.0469 7.49107 15.0469H16.5558C17.2478 15.0469 17.8359 14.8047 18.3203 14.3203C18.8047 13.8359 19.0469 13.2478 19.0469 12.5558V3.49107C19.0469 2.79911 18.8047 2.21094 18.3203 1.72656C17.8359 1.24219 17.2478 1 16.5558 1ZM33.5089 1H24.4442C23.7522 1 23.1641 1.24219 22.6797 1.72656C22.1953 2.21094 21.9531 2.79911 21.9531 3.49107V12.5558C21.9531 13.2478 22.1953 13.8359 22.6797 14.3203C23.1641 14.8047 23.7522 15.0469 24.4442 15.0469H33.5089C34.2009 15.0469 34.7891 14.8047 35.2734 14.3203C35.7578 13.8359 36 13.2478 36 12.5558V3.49107C36 2.79911 35.7578 2.21094 35.2734 1.72656C34.7891 1.24219 34.2009 1 33.5089 1ZM16.5558 17.9531H7.49107C6.79911 17.9531 6.21094 18.1953 5.72656 18.6797C5.24219 19.1641 5 19.7522 5 20.4442V29.5089C5 30.2009 5.24219 30.7891 5.72656 31.2734C6.21094 31.7578 6.79911 32 7.49107 32H16.5558C17.2478 32 17.8359 31.7578 18.3203 31.2734C18.8047 30.7891 19.0469 30.2009 19.0469 29.5089V20.4442C19.0469 19.7522 18.8047 19.1641 18.3203 18.6797C17.8359 18.1953 17.2478 17.9531 16.5558 17.9531ZM33.5089 17.9531H24.4442C23.7522 17.9531 23.1641 18.1953 22.6797 18.6797C22.1953 19.1641 21.9531 19.7522 21.9531 20.4442V29.5089C21.9531 30.2009 22.1953 30.7891 22.6797 31.2734C23.1641 31.7578 23.7522 32 24.4442 32H33.5089C34.2009 32 34.7891 31.7578 35.2734 31.2734C35.7578 30.7891 36 30.2009 36 29.5089V20.4442C36 19.7522 35.7578 19.1641 35.2734 18.6797C34.7891 18.1953 34.2009 17.9531 33.5089 17.9531Z" fill="#979797"/>
<path d="M16.5558 1H7.49107C6.79911 1 6.21094 1.24219 5.72656 1.72656C5.24219 2.21094 5 2.79911 5 3.49107V12.5558C5 13.2478 5.24219 13.8359 5.72656 14.3203C6.21094 14.8047 6.79911 15.0469 7.49107 15.0469H16.5558C17.2478 15.0469 17.8359 14.8047 18.3203 14.3203C18.8047 13.8359 19.0469 13.2478 19.0469 12.5558V3.49107C19.0469 2.79911 18.8047 2.21094 18.3203 1.72656C17.8359 1.24219 17.2478 1 16.5558 1ZM33.5089 1H24.4442C23.7522 1 23.1641 1.24219 22.6797 1.72656C22.1953 2.21094 21.9531 2.79911 21.9531 3.49107V12.5558C21.9531 13.2478 22.1953 13.8359 22.6797 14.3203C23.1641 14.8047 23.7522 15.0469 24.4442 15.0469H33.5089C34.2009 15.0469 34.7891 14.8047 35.2734 14.3203C35.7578 13.8359 36 13.2478 36 12.5558V3.49107C36 2.79911 35.7578 2.21094 35.2734 1.72656C34.7891 1.24219 34.2009 1 33.5089 1ZM16.5558 17.9531H7.49107C6.79911 17.9531 6.21094 18.1953 5.72656 18.6797C5.24219 19.1641 5 19.7522 5 20.4442V29.5089C5 30.2009 5.24219 30.7891 5.72656 31.2734C6.21094 31.7578 6.79911 32 7.49107 32H16.5558C17.2478 32 17.8359 31.7578 18.3203 31.2734C18.8047 30.7891 19.0469 30.2009 19.0469 29.5089V20.4442C19.0469 19.7522 18.8047 19.1641 18.3203 18.6797C17.8359 18.1953 17.2478 17.9531 16.5558 17.9531ZM33.5089 17.9531H24.4442C23.7522 17.9531 23.1641 18.1953 22.6797 18.6797C22.1953 19.1641 21.9531 19.7522 21.9531 20.4442V29.5089C21.9531 30.2009 22.1953 30.7891 22.6797 31.2734C23.1641 31.7578 23.7522 32 24.4442 32H33.5089C34.2009 32 34.7891 31.7578 35.2734 31.2734C35.7578 30.7891 36 30.2009 36 29.5089V20.4442C36 19.7522 35.7578 19.1641 35.2734 18.6797C34.7891 18.1953 34.2009 17.9531 33.5089 17.9531Z" stroke="black"/>
</g>
<defs>
<filter id="filter0_d_2796_5332" x="0.5" y="0.5" width="40" height="40" filterUnits="userSpaceOnUse" color-interpolation-filters="sRGB">
<feFlood flood-opacity="0" result="BackgroundImageFix"/>
<feColorMatrix in="SourceAlpha" type="matrix" values="0 0 0 0 0 0 0 0 0 0 0 0 0 0 0 0 0 0 127 0" result="hardAlpha"/>
<feOffset dy="4"/>
<feGaussianBlur stdDeviation="2"/>
<feComposite in2="hardAlpha" operator="out"/>
<feColorMatrix type="matrix" values="0 0 0 0 0 0 0 0 0 0 0 0 0 0 0 0 0 0 0.25 0"/>
<feBlend mode="normal" in2="BackgroundImageFix" result="effect1_dropShadow_2796_5332"/>
<feBlend mode="normal" in="SourceGraphic" in2="effect1_dropShadow_2796_5332" result="shape"/>
</filter>
</defs>
</svg>
