<svg width="37" height="39" viewBox="0 0 37 39" fill="none" xmlns="http://www.w3.org/2000/svg">
<mask id="mask0_2796_5333" style="mask-type:alpha" maskUnits="userSpaceOnUse" x="0" y="0" width="37" height="39">
<rect width="37" height="38.7619" fill="white"/>
</mask>
<g mask="url(#mask0_2796_5333)">
<path d="M7.80752 28.5844C7.38802 27.6437 7.75971 26.5167 8.63771 26.0672C9.51571 25.6178 10.5675 26.016 10.987 26.9567C12.0983 29.4486 14.6081 31.1112 17.4452 31.1112C21.3631 31.1112 24.4928 27.977 24.4928 24.1769C24.4928 20.3767 21.3631 17.2425 17.4452 17.2425C16.4721 17.2425 15.6833 16.3973 15.6833 15.3547C15.6833 14.3122 16.4721 13.467 17.4452 13.467C23.258 13.467 28.0166 18.2324 28.0166 24.1769C28.0166 30.1213 23.258 34.8867 17.4452 34.8867C13.2625 34.8867 9.50927 32.4005 7.80752 28.5844Z" fill="url(#paint0_linear_2796_5333)"/>
<path d="M27.8629 10.0166C28.2596 10.9685 27.861 12.0849 26.9725 12.51C26.084 12.9351 25.0421 12.508 24.6453 11.5561C23.5198 8.8557 21.0146 7.0802 18.2062 7.0802C14.3139 7.0802 11.1586 10.4609 11.1586 14.6312C11.1586 18.8015 14.3139 22.1822 18.2062 22.1822C19.1793 22.1822 19.9681 23.0274 19.9681 24.07C19.9681 25.1126 19.1793 25.9577 18.2062 25.9577C12.3678 25.9577 7.63477 20.8867 7.63477 14.6312C7.63477 8.37575 12.3678 3.30469 18.2062 3.30469C22.4175 3.30469 26.1754 5.96803 27.8629 10.0166Z" fill="url(#paint1_linear_2796_5333)"/>
</g>
<defs>
<linearGradient id="paint0_linear_2796_5333" x1="12.839" y1="6.11378" x2="-9.63844" y2="28.3416" gradientUnits="userSpaceOnUse">
<stop stop-color="#FAFAFA"/>
<stop offset="1" stop-color="#939393"/>
</linearGradient>
<linearGradient id="paint1_linear_2796_5333" x1="-26.5821" y1="-64.4273" x2="-163.286" y2="33.9742" gradientUnits="userSpaceOnUse">
<stop stop-color="#FAFAFA"/>
<stop offset="1" stop-color="#939393"/>
</linearGradient>
</defs>
</svg>
